<svg width="498" height="110" viewBox="0 0 498 110" fill="none" xmlns="http://www.w3.org/2000/svg">
<path fill-rule="evenodd" clip-rule="evenodd" d="M69.308 40.3291L60.1766 47.9909L50.7858 55.8709V52.2491V40.3291L1.58008 81.6182H15.7852L41.655 59.9109V63.5327V74.313L41.6514 75.4553L41.655 75.4527L49.9495 68.4928L50.7858 67.7909L60.1766 59.9109V67.0083V74.313H69.308H71.7431H72.0056H77.833C83.6051 74.313 87.9263 73.2673 90.7966 71.1868C93.6664 69.1063 95.1069 65.9694 95.1069 61.7764C95.1069 58.9061 94.36 56.5268 92.8554 54.6386C91.3621 52.7499 89.0785 51.3311 86.0273 50.3707C87.9155 49.5168 89.3669 48.3646 90.3588 46.9029C91.3512 45.4411 91.8418 43.3456 91.8418 41.4146C91.8418 37.7017 90.379 35.3075 87.4461 33.4167C84.5211 31.5306 80.1802 30.5894 74.4293 30.5894H71.7431H42.1083L33.3408 37.894H71.7431H72.016H74.9628C77.9018 37.894 78.2398 38.122 79.2131 38.9407C80.1921 39.7652 80.9447 41.3029 80.9447 42.989C80.9447 44.5149 80.555 45.8862 79.6401 46.7003C78.2941 47.8969 77.6816 48.0835 75.8084 48.0835H71.7431V55.3886H75.5815C78.5334 55.3886 79.5548 55.4605 81.228 56.6638C82.4969 57.5761 83.4516 59.5372 83.4516 61.4145C83.4516 62.9373 82.8799 64.3045 81.5272 65.5026C79.6706 67.1473 78.4838 67.0083 75.6456 67.0083H72.0056H71.7431H69.308V52.2491V40.3291V40.3291Z" fill="url(#paint0_radial)"/>
<path d="M8.89565 62.1573C8.98249 62.6442 8.98921 63.1223 8.91581 63.5906C8.84241 64.0595 8.67391 64.49 8.41029 64.8829C8.14668 65.2752 7.77555 65.6163 7.29743 65.9058C6.81879 66.1958 6.21455 66.4056 5.48367 66.5359L5.25572 66.5767C4.55534 66.7018 3.93817 66.7101 3.40475 66.601C2.8708 66.4925 2.41387 66.2991 2.03447 66.0211C1.65508 65.7435 1.35218 65.3972 1.12475 64.9821C0.897319 64.567 0.740184 64.1163 0.653347 63.6294C0.56651 63.142 0.557723 62.6649 0.626986 62.1966C0.696766 61.7288 0.861653 61.2988 1.12113 60.907C1.38113 60.5152 1.74243 60.1756 2.20556 59.8887C2.6687 59.6018 3.25071 59.3961 3.95058 59.271L4.17904 59.2302C4.90992 59.0994 5.54932 59.0875 6.09877 59.1935C6.6477 59.2994 7.11394 59.4912 7.49695 59.7683C7.88048 60.0453 8.18751 60.3911 8.41856 60.8051C8.64961 61.2197 8.80882 61.6704 8.89565 62.1573V62.1573ZM7.68562 62.3734C7.63496 62.0917 7.53675 61.8265 7.39047 61.5779C7.24368 61.3292 7.04002 61.122 6.77848 60.9566C6.51745 60.7912 6.19284 60.6785 5.80518 60.618C5.41751 60.5581 4.9611 60.5746 4.43594 60.6681L4.20747 60.709C3.70557 60.7989 3.29206 60.9375 2.96849 61.1251C2.6444 61.3122 2.39268 61.5283 2.21228 61.7722C2.03189 62.0167 1.91662 62.2808 1.86493 62.5646C1.81376 62.8489 1.81325 63.1316 1.86338 63.4133C1.91507 63.7023 2.01431 63.9716 2.16059 64.2202C2.30739 64.4688 2.50743 64.6766 2.7607 64.8431C3.01449 65.01 3.32514 65.1232 3.69317 65.1832C4.06119 65.2431 4.49641 65.2281 4.99883 65.1387L5.22678 65.0979C5.75194 65.0038 6.18664 64.8637 6.52985 64.6766C6.87358 64.4895 7.13926 64.2734 7.32741 64.0279C7.51504 63.7819 7.63444 63.5172 7.68613 63.2335C7.7373 62.9492 7.73731 62.6623 7.68562 62.3734V62.3734ZM1.9342 56.6886L3.39492 56.6519L3.43317 58.1587L1.97245 58.1959L0.143178 56.9662L0.125604 56.2705L1.9342 56.6886ZM6.99815 54.9214L1.5243 50.1324L1.2028 54.3642L0 54.2732L0.448142 48.376L1.53516 48.4582L7.00953 53.2477L7.3486 48.7844L8.5514 48.8753L8.08517 55.0041L6.99815 54.9214V54.9214ZM0.822887 45.545L1.55273 42.3811C1.76001 41.4849 2.10374 40.8718 2.58444 40.5426C3.06463 40.2128 3.62546 40.1223 4.26588 40.2702C4.67216 40.3637 4.99625 40.5498 5.23763 40.8279C5.47902 41.1055 5.62116 41.4435 5.66407 41.8425C5.87754 41.3996 6.17578 41.0781 6.55932 40.877C6.94285 40.6759 7.39099 40.6341 7.90323 40.7524C8.23455 40.8289 8.52556 40.9519 8.77625 41.1205C9.02694 41.2895 9.22439 41.5076 9.36912 41.7754C9.51385 42.0426 9.60069 42.362 9.62963 42.7337C9.6591 43.1053 9.61723 43.5364 9.50403 44.0259L8.73232 47.3707L0.822887 45.545V45.545ZM8.29503 43.9018C8.43097 43.3141 8.42994 42.8872 8.29296 42.6215C8.15598 42.3558 7.89134 42.178 7.50005 42.0876C7.31139 42.0441 7.13616 42.0312 6.97334 42.0493C6.81052 42.0674 6.66424 42.1248 6.53451 42.2219C6.40528 42.3191 6.29105 42.4613 6.19233 42.6484C6.09308 42.836 6.00986 43.0769 5.94215 43.3705L5.51985 45.2008L7.87015 45.7435L8.29503 43.9018ZM4.81327 43.3121C4.93474 42.7848 4.92181 42.3951 4.77347 42.1429C4.62564 41.8901 4.3858 41.7257 4.05447 41.6492C3.7154 41.5712 3.43421 41.613 3.20988 41.7759C2.98607 41.9382 2.81239 42.2871 2.68885 42.8221L2.31101 44.4601L4.4349 44.9506L4.81327 43.3121V43.3121ZM3.12563 36.8112L5.12495 31.741L6.2466 32.1835L4.75796 35.9593L6.74281 36.7419L8.1043 33.2896L9.22594 33.732L7.86498 37.1844L10.0659 38.0517L11.5545 34.2763L12.6767 34.7183L10.6774 39.789L3.12563 36.8112V36.8112ZM6.46369 29.1958L7.15736 27.9894L10.5151 29.9205L8.86826 25.0142L9.70096 23.5664L11.0614 27.8535L16.8537 27.4115L16.0096 28.879L11.4336 29.1374L11.9329 30.7351L14.1948 32.0356L13.5011 33.242L6.46369 29.1958V29.1958ZM11.5483 21.366L12.4079 20.2718L18.7905 25.2876L17.9309 26.3814L11.5483 21.366V21.366ZM22.1931 21.7356C21.8127 22.0984 21.4426 22.3708 21.0823 22.5538C20.7226 22.7368 20.3773 22.8417 20.0455 22.8696C19.7141 22.897 19.4009 22.8567 19.1052 22.7487C18.8101 22.6407 18.5336 22.4737 18.2767 22.2489L19.2836 21.289C19.418 21.3851 19.557 21.4554 19.7012 21.4999C19.8449 21.5443 20.002 21.5547 20.1721 21.5314C20.3422 21.5082 20.5225 21.4425 20.7138 21.335C20.905 21.2275 21.1154 21.0647 21.3449 20.846C21.5796 20.6217 21.76 20.4103 21.8851 20.2108C22.0101 20.0112 22.0908 19.8272 22.1275 19.6587C22.1647 19.4902 22.16 19.3341 22.114 19.1909C22.0686 19.0478 21.9921 18.9201 21.8856 18.8079C21.624 18.534 21.2994 18.4482 20.9112 18.551C20.5236 18.6539 20.0077 18.9056 19.3637 19.3057C18.9977 19.5269 18.653 19.7032 18.3299 19.8345C18.0068 19.9663 17.7019 20.0386 17.4145 20.051C17.1271 20.0629 16.8506 20.0112 16.5854 19.8955C16.3202 19.7802 16.0597 19.5879 15.8039 19.3191C15.5956 19.101 15.4446 18.8498 15.35 18.566C15.2554 18.2823 15.2286 17.9819 15.2689 17.6661C15.3092 17.3498 15.4224 17.0231 15.608 16.6856C15.794 16.3486 16.0628 16.0116 16.4153 15.6756C16.757 15.3499 17.0935 15.1039 17.4253 14.9369C17.7577 14.77 18.0797 14.6739 18.3919 14.6485C18.7046 14.6232 19.0029 14.6614 19.2877 14.7638C19.572 14.8667 19.8377 15.0248 20.0842 15.2383L19.0768 16.1987C18.8292 16.0286 18.5522 15.9645 18.2451 16.0064C17.9376 16.0483 17.6104 16.2343 17.2636 16.5651C16.8609 16.9492 16.6381 17.2955 16.5952 17.6036C16.5523 17.9111 16.6242 18.1634 16.8108 18.3588C17.0666 18.6275 17.3711 18.7221 17.7226 18.643C18.0746 18.564 18.5279 18.3505 19.083 18.0031C19.4939 17.7504 19.8744 17.5478 20.2253 17.3948C20.5763 17.2418 20.9066 17.1539 21.2162 17.1311C21.5253 17.1084 21.8168 17.1539 22.0903 17.2671C22.3637 17.3803 22.6315 17.5736 22.8925 17.8481C23.122 18.0884 23.2879 18.3577 23.3902 18.6554C23.4926 18.9532 23.5189 19.2695 23.4698 19.6045C23.4213 19.9399 23.2926 20.2867 23.0842 20.6455C22.8759 21.0042 22.5792 21.3676 22.1931 21.7356V21.7356ZM22.8232 11.9007L20.6021 13.4798L19.9033 12.4972L25.4795 8.53218L26.1783 9.51479L23.9573 11.0944L27.9626 16.7269L26.8286 17.5333L22.8232 11.9007V11.9007ZM33.6613 13.4008C33.2209 13.6266 32.7661 13.7729 32.2962 13.8396C31.8269 13.9063 31.3658 13.8711 30.913 13.7336C30.4608 13.5961 30.0261 13.3413 29.6089 12.9681C29.1923 12.5954 28.8145 12.0786 28.4764 11.418L28.3705 11.2117C28.0464 10.5785 27.8582 9.99084 27.8065 9.44863C27.7543 8.90641 27.806 8.4133 27.9606 7.96929C28.1151 7.52528 28.3581 7.13348 28.6884 6.79492C29.0186 6.45636 29.4037 6.17465 29.8446 5.94877C30.2845 5.72341 30.7388 5.57558 31.2066 5.50528C31.6744 5.43499 32.1339 5.46703 32.5847 5.60091C33.0354 5.73478 33.4654 5.98134 33.8753 6.34006C34.2852 6.6993 34.6522 7.19551 34.9763 7.82818L35.0823 8.03494C35.4203 8.69552 35.6188 9.3039 35.6782 9.86007C35.7372 10.4157 35.6901 10.9176 35.5371 11.3652C35.3841 11.8129 35.1433 12.2078 34.8145 12.5494C34.4863 12.8916 34.1017 13.1754 33.6613 13.4008V13.4008ZM33.101 12.307C33.3553 12.1762 33.5802 12.0046 33.775 11.7922C33.9704 11.5792 34.1084 11.3239 34.1906 11.0257C34.2723 10.7274 34.2852 10.3842 34.2299 9.99601C34.1741 9.60731 34.0247 9.17571 33.7818 8.70121L33.6758 8.49445C33.4432 8.04062 33.1899 7.68604 32.916 7.43121C32.642 7.17587 32.3619 6.99806 32.076 6.89726C31.7897 6.79595 31.5033 6.76287 31.2165 6.79647C30.9301 6.83059 30.6592 6.91277 30.4049 7.04303C30.1434 7.1769 29.9149 7.35058 29.7201 7.56302C29.5252 7.77598 29.3846 8.0277 29.2993 8.31922C29.214 8.61023 29.1965 8.94104 29.2471 9.3101C29.2972 9.67968 29.4384 10.0916 29.671 10.5455L29.7769 10.7522C30.0199 11.2267 30.2814 11.6015 30.5605 11.8749C30.8396 12.1489 31.1244 12.3401 31.4139 12.4476C31.7039 12.5556 31.9918 12.5923 32.2787 12.5587C32.565 12.5246 32.8395 12.4409 33.101 12.307V12.307ZM35.9827 3.20616L37.277 2.83865L42.6981 7.32628L41.1144 1.74905L42.4526 1.36862L44.67 9.17726L43.3763 9.54477L37.9551 5.05714L39.5389 10.6349L38.2001 11.0148L35.9827 3.20616V3.20616ZM49.9873 0.0795037L53.0591 0.00197039C53.5693 -0.0109518 54.0169 0.0397033 54.4025 0.153419C54.7886 0.267651 55.1117 0.433572 55.3722 0.651182C55.6332 0.868793 55.8333 1.13034 55.9723 1.43634C56.1114 1.74233 56.1858 2.08038 56.1951 2.45151C56.2091 3.00768 56.0705 3.49304 55.7795 3.90603C55.4885 4.31954 55.0435 4.62295 54.4454 4.81575L56.5683 8.03339L55.0378 8.07215L53.1625 5.01062L51.5048 5.05249L51.5834 8.15951L50.1925 8.19465L49.9873 0.0795037V0.0795037ZM52.9247 3.85641C53.6355 3.83883 54.1291 3.71013 54.4056 3.47133C54.6816 3.23201 54.8145 2.90378 54.8041 2.48665C54.7933 2.06952 54.6439 1.74802 54.356 1.52369C54.0681 1.29884 53.5688 1.19547 52.8575 1.21356L51.4087 1.25026L51.4754 3.89311L52.9247 3.85641V3.85641ZM59.5306 0.0857063L64.9372 0.773168L64.7853 1.96925L60.7592 1.45753L60.4899 3.57419L64.1712 4.04197L64.0192 5.23857L60.338 4.77078L60.0397 7.11746L64.0663 7.62918L63.9143 8.82578L58.5071 8.13831L59.5306 0.0857063V0.0857063ZM68.1487 10.0622C67.6431 9.91848 67.2203 9.73808 66.8802 9.52099C66.5396 9.3039 66.2734 9.05941 66.0816 8.78804C65.8893 8.51668 65.7648 8.22618 65.7084 7.91657C65.6516 7.60695 65.6547 7.28441 65.7177 6.94895L67.0565 7.32887C67.042 7.49375 67.0518 7.64934 67.0865 7.79562C67.1216 7.94241 67.1919 8.08301 67.2984 8.2174C67.4049 8.35231 67.5527 8.47429 67.7424 8.58491C67.9326 8.695 68.1797 8.79321 68.4846 8.87953C68.7968 8.96844 69.0708 9.01599 69.306 9.02271C69.5412 9.02891 69.7407 9.00565 69.9045 8.95138C70.0689 8.89762 70.2007 8.8144 70.301 8.70224C70.4013 8.59007 70.4726 8.45982 70.5145 8.31095C70.6178 7.94655 70.5269 7.62349 70.2415 7.34127C69.9557 7.05957 69.4771 6.74271 68.8056 6.39123C68.4293 6.18809 68.1021 5.9803 67.8251 5.7689C67.5475 5.55749 67.3304 5.33109 67.1738 5.09022C67.0172 4.84883 66.9216 4.58419 66.8864 4.29731C66.8518 4.00992 66.8849 3.6879 66.9862 3.33073C67.0684 3.04076 67.2079 2.78335 67.4049 2.55798C67.6013 2.3321 67.8463 2.15688 68.1388 2.03076C68.4319 1.90515 68.771 1.83641 69.1556 1.82555C69.5406 1.81418 69.9676 1.87517 70.4359 2.00801C70.8897 2.13672 71.2727 2.30212 71.5849 2.50319C71.8977 2.70426 72.1442 2.93325 72.3246 3.18911C72.505 3.44548 72.6234 3.72202 72.6797 4.01923C72.7355 4.31644 72.7345 4.62554 72.6756 4.94653L71.3368 4.56661C71.3575 4.26682 71.2717 3.99545 71.0799 3.752C70.8877 3.50854 70.5615 3.32143 70.0999 3.19066C69.5649 3.03869 69.1535 3.02215 68.8661 3.14155C68.5792 3.26095 68.3988 3.45065 68.3249 3.71116C68.2236 4.06833 68.296 4.37795 68.543 4.64105C68.7896 4.90414 69.2041 5.18636 69.7851 5.48771C70.2116 5.71359 70.5796 5.93844 70.8892 6.16328C71.1993 6.38761 71.4428 6.62745 71.6196 6.88279C71.7958 7.13762 71.9049 7.41209 71.9462 7.70516C71.9876 7.99824 71.9566 8.32698 71.8532 8.69087C71.7622 9.01082 71.6149 9.29046 71.4102 9.52978C71.2055 9.7691 70.9466 9.95259 70.6328 10.0803C70.3191 10.2085 69.9552 10.2736 69.5406 10.2767C69.1261 10.2793 68.6619 10.2079 68.1487 10.0622ZM76.0834 4.09056L78.778 5.30887C79.7714 5.75804 80.4077 6.30233 80.6868 6.94172C80.9665 7.58111 80.9437 8.2603 80.6186 8.97877C80.294 9.69725 79.7993 10.163 79.1346 10.3759C78.4699 10.5889 77.6408 10.4705 76.6473 10.0213L75.2212 9.37678L74.0076 12.0605L72.7397 11.4872L76.0834 4.09056V4.09056ZM77.0386 8.87488C77.37 9.02478 77.6599 9.12402 77.9091 9.17312C78.1587 9.22223 78.3732 9.22585 78.5531 9.18398C78.7335 9.14263 78.8875 9.05527 79.0152 8.92243C79.1434 8.78908 79.255 8.61695 79.3507 8.40554C79.4463 8.19414 79.5011 7.99824 79.5145 7.81784C79.5285 7.63745 79.4923 7.46429 79.406 7.29785C79.3202 7.13193 79.176 6.97118 78.9744 6.81663C78.7733 6.66208 78.5066 6.5096 78.1758 6.36022L76.8546 5.76269L75.718 8.27787L77.0386 8.87488V8.87488ZM82.1326 16.8303C81.7232 16.5388 81.3919 16.2178 81.1386 15.8668C80.8853 15.5164 80.7225 15.1442 80.6506 14.7519C80.5788 14.3591 80.6021 13.9466 80.7204 13.5134C80.8383 13.0803 81.0631 12.6311 81.395 12.1649L84.2172 8.19569L85.3517 9.00203L82.5761 12.9051C82.1326 13.5289 81.9387 14.081 81.9951 14.5622C82.0514 15.0434 82.3347 15.4657 82.8448 15.8286C83.3617 16.1956 83.8548 16.3258 84.3247 16.2188C84.7945 16.1118 85.2489 15.7495 85.6877 15.1323L88.4701 11.2195L89.6042 12.0263L86.7815 15.9955C86.4501 16.4618 86.0992 16.8215 85.7291 17.0753C85.359 17.3291 84.9765 17.4862 84.5821 17.5478C84.1877 17.6087 83.7835 17.5772 83.369 17.4532C82.9544 17.3291 82.5419 17.1213 82.1326 16.8303V16.8303ZM91.6604 13.8551L94.0107 16.0958C94.6764 16.7306 95.0284 17.3389 95.0672 17.9204C95.1054 18.5019 94.8982 19.0302 94.4443 19.5057C94.1564 19.8081 93.8313 19.9921 93.4695 20.0583C93.1071 20.1244 92.7438 20.0743 92.3788 19.9079C92.6512 20.3167 92.7758 20.738 92.7536 21.1701C92.7308 21.6027 92.5386 22.009 92.1757 22.39C91.941 22.636 91.6872 22.8236 91.4138 22.9534C91.1409 23.0831 90.8525 23.1415 90.5485 23.1296C90.2451 23.1177 89.9257 23.0299 89.5907 22.8655C89.2563 22.7016 88.9069 22.4458 88.5435 22.099L86.0588 19.7306L91.6604 13.8551V13.8551ZM89.2667 21.122C89.7029 21.5381 90.0704 21.7552 90.3687 21.7728C90.6674 21.7899 90.9553 21.6534 91.2324 21.3624C91.3657 21.2223 91.4665 21.0781 91.5337 20.9287C91.6014 20.7793 91.6263 20.6243 91.6087 20.4635C91.5911 20.3028 91.527 20.1317 91.4164 19.9513C91.3053 19.7709 91.1409 19.5765 90.9223 19.3682L89.5628 18.0719L87.8985 19.8179L89.2667 21.122ZM91.5482 18.4265C91.9395 18.8002 92.2817 18.9873 92.5742 18.9888C92.8668 18.9899 93.1304 18.8674 93.3651 18.6213C93.6054 18.3696 93.7124 18.106 93.6871 17.8305C93.6612 17.5545 93.4498 17.2273 93.0523 16.8489L91.8356 15.6885L90.3309 17.2666L91.5482 18.4265V18.4265ZM98.2135 20.7214L99.0198 21.8555L93.3873 25.8609L95.6725 29.0738L94.6893 29.7732L91.5983 25.4257L98.2135 20.7214ZM102.548 27.182L103.242 28.3885L96.2043 32.4347L95.5112 31.2282L102.548 27.182V27.182ZM104.743 30.9739L105.253 32.2682L101.65 33.6891L106.512 35.4616L107.125 37.0153L102.925 35.4052L99.6582 40.2081L99.0369 38.6332L101.689 34.895L100.129 34.2887L97.7012 35.246L97.1911 33.9512L104.743 30.9739V30.9739ZM102.933 45.7011L102.192 42.4918L100.253 42.2375L99.9399 40.8811L108.54 42.0503L108.854 43.4061L101.635 48.2261L101.301 46.7799L102.933 45.7011V45.7011ZM103.469 42.6613L104.006 44.9889L106.994 43.0851L103.469 42.6613V42.6613ZM101.711 51.7668C101.67 51.2427 101.694 50.7837 101.78 50.3893C101.866 49.9949 102.004 49.661 102.192 49.3871C102.381 49.1126 102.611 48.8955 102.882 48.7353C103.152 48.5755 103.456 48.467 103.793 48.4101L103.898 49.798C103.739 49.8409 103.596 49.9039 103.471 49.9872C103.345 50.0704 103.238 50.1856 103.148 50.3319C103.058 50.4782 102.995 50.6596 102.957 50.8752C102.919 51.0918 102.912 51.3574 102.936 51.6738C102.961 51.9973 103.011 52.2708 103.086 52.4941C103.161 52.7169 103.252 52.8962 103.359 53.0311C103.467 53.1665 103.59 53.2617 103.73 53.317C103.87 53.3723 104.017 53.394 104.171 53.3826C104.548 53.3537 104.82 53.1567 104.987 52.7913C105.153 52.4258 105.285 51.8671 105.383 51.1155C105.444 50.6922 105.525 50.3138 105.628 49.9804C105.73 49.6471 105.868 49.3653 106.04 49.1348C106.213 48.9048 106.428 48.7239 106.685 48.5916C106.943 48.4598 107.256 48.3796 107.627 48.3517C107.927 48.3285 108.217 48.3703 108.496 48.4773C108.776 48.5838 109.025 48.7528 109.244 48.9844C109.464 49.216 109.645 49.5101 109.789 49.8678C109.932 50.2249 110.022 50.6467 110.059 51.1321C110.095 51.6024 110.072 52.019 109.991 52.3819C109.91 52.7442 109.781 53.0549 109.603 53.3128C109.424 53.5702 109.206 53.777 108.946 53.9326C108.687 54.0876 108.396 54.1931 108.075 54.2484L107.969 52.8611C108.258 52.7773 108.483 52.6031 108.645 52.3385C108.807 52.0744 108.87 51.7032 108.833 51.2256C108.791 50.6705 108.664 50.2787 108.453 50.0507C108.242 49.8223 108.002 49.7184 107.732 49.7391C107.362 49.767 107.096 49.9427 106.934 50.2647C106.773 50.5873 106.651 51.0731 106.568 51.7234C106.504 52.201 106.42 52.6243 106.316 52.9924C106.212 53.3609 106.071 53.6721 105.893 53.9259C105.715 54.1802 105.495 54.3771 105.234 54.5172C104.973 54.6567 104.654 54.7415 104.277 54.7699C103.945 54.7953 103.632 54.7534 103.336 54.6438C103.041 54.5342 102.78 54.3549 102.551 54.1047C102.323 53.8545 102.136 53.5351 101.99 53.1469C101.844 52.7587 101.751 52.2987 101.711 51.7668V51.7668ZM110.036 56.5992L110.001 57.9907L101.886 57.7855L101.921 56.394L110.036 56.5992Z" fill="#E4A216"/>
<path d="M19.1274 85.0323L20.1193 86.0733L18.4208 91.2654L23.6885 89.8166L24.6483 90.8235L18.7734 96.425L17.813 95.4176L21.9259 91.497L17.5499 92.7049L16.9095 92.033L18.3247 87.7201L14.2123 91.6407L13.252 90.6338L19.1274 85.0323V85.0323ZM26.1597 99.5036L23.4755 97.5947L21.8561 98.6915L20.722 97.8847L27.9311 93.0507L29.0651 93.8571L26.8652 102.253L25.6552 101.393L26.1597 99.5036ZM24.5434 96.8742L26.49 98.2584L27.4617 94.8511L24.5434 96.8742ZM32.3412 96.0229L35.1412 97.2887C35.6064 97.4986 35.9878 97.7389 36.2855 98.0093C36.5833 98.2796 36.8019 98.5696 36.942 98.8792C37.0821 99.1883 37.1487 99.5108 37.141 99.8468C37.1332 100.183 37.0531 100.52 36.9001 100.858C36.6706 101.365 36.3352 101.742 35.8932 101.987C35.4513 102.233 34.9189 102.312 34.2966 102.226L34.8088 106.047L33.4142 105.416L33.0565 101.844L31.5457 101.161L30.2653 103.993L28.9974 103.42L32.3412 96.0229ZM33.3439 100.701C33.9921 100.994 34.4925 101.093 34.845 100.998C35.198 100.903 35.4601 100.665 35.6322 100.285C35.8043 99.9042 35.8095 99.5506 35.6477 99.2229C35.4859 98.8952 35.0812 98.5851 34.433 98.292L33.1124 97.695L32.0233 100.104L33.3439 100.701V100.701ZM39.6159 99.2022L40.9546 99.5827L39.8965 103.308L44.2565 100.52L45.863 100.976L42.0344 103.337L43.8688 108.848L42.2401 108.386L40.8791 104.009L39.4499 104.881L38.7377 107.391L37.3989 107.011L39.6159 99.2022V99.2022ZM51.2247 107.878L47.9409 107.628L47.12 109.403L45.7322 109.298L49.4119 101.436L50.7993 101.542L53.2483 109.869L51.7684 109.757L51.2247 107.878V107.878ZM48.4836 106.46L50.8654 106.641L49.9392 103.221L48.4836 106.46V106.46ZM55.1205 108.913L59.0271 102.778L54.7948 103.1L54.7033 101.897L60.6005 101.449L60.6832 102.536L56.7771 108.671L61.2404 108.331L61.3319 109.534L55.2032 110L55.1205 108.913V108.913ZM62.6898 101.122L64.0595 100.877L65.4867 108.869L64.1169 109.114L62.6898 101.122V101.122ZM69.9262 104.596L65.3621 100.876L66.9215 100.348L70.1609 103.047L70.9419 98.9877L72.3918 98.4972L71.2443 104.15L72.2476 107.116L70.9295 107.562L69.9262 104.596ZM76.0917 96.8478L78.9061 95.2294C79.7037 94.7709 80.387 94.6055 80.9551 94.7332C81.5236 94.8614 81.9718 95.2103 82.2995 95.7799C82.5073 96.1417 82.592 96.5056 82.5528 96.8716C82.5135 97.2375 82.362 97.572 82.0995 97.8744C82.5688 97.7296 83.0076 97.7291 83.416 97.8733C83.8243 98.0175 84.1598 98.3173 84.4218 98.7732C84.5914 99.0678 84.6994 99.3645 84.7464 99.6633C84.7935 99.9621 84.7676 100.255 84.6705 100.543C84.5728 100.831 84.3981 101.112 84.1453 101.387C83.8931 101.661 83.5488 101.924 83.1136 102.174L80.1379 103.885L76.0917 96.8478V96.8478ZM82.3817 101.204C82.9043 100.903 83.2165 100.612 83.3178 100.331C83.4191 100.049 83.3695 99.7346 83.1694 99.3862C83.0728 99.2188 82.9627 99.0813 82.8386 98.9743C82.7146 98.8673 82.5729 98.7996 82.4137 98.7706C82.2545 98.7417 82.0726 98.7551 81.8679 98.8099C81.6637 98.8652 81.4306 98.9681 81.1691 99.1185L79.5403 100.055L80.7431 102.146L82.3817 101.204V101.204ZM80.4433 98.2517C80.9127 97.9819 81.1892 97.7069 81.2735 97.4267C81.3572 97.1466 81.3148 96.8587 81.1448 96.564C80.9716 96.2622 80.7493 96.0849 80.4775 96.0316C80.2061 95.9779 79.8324 96.088 79.3568 96.3614L77.8987 97.1998L78.9857 99.0896L80.4433 98.2517V98.2517ZM89.9686 95.0356L87.379 97.0706L87.9729 98.934L86.8786 99.7936L84.2797 91.5125L85.3734 90.6524L92.8058 95.1364L91.6386 96.0534L89.9686 95.0356V95.0356ZM86.9892 95.843L88.8676 94.3667L85.8738 92.4718L86.9892 95.843V95.843ZM88.0597 88.3409L88.9405 87.3241L95.935 88.1052L91.5523 84.3091L92.4636 83.2573L98.5991 88.5719L97.7183 89.5886L90.7237 88.8076L95.1064 92.6042L94.1952 93.6555L88.0597 88.3409ZM93.5651 81.9066L94.2587 80.7002L97.6165 82.6313L95.9696 77.7245L96.8018 76.2772L98.1628 80.5643L103.955 80.1223L103.111 81.5898L98.5344 81.8482L99.0338 83.4459L101.296 84.7464L100.602 85.9528L93.5651 81.9066V81.9066ZM97.6635 74.3761L98.2367 73.1082L105.633 76.4519L105.06 77.7203L97.6635 74.3761Z" fill="#E4A216"/>
<path fill-rule="evenodd" clip-rule="evenodd" d="M104.468 64.4802C106.035 64.4802 107.306 65.7513 107.306 67.319C107.306 68.8867 106.035 70.1578 104.468 70.1578C102.9 70.1578 101.629 68.8867 101.629 67.319C101.629 65.7513 102.9 64.4802 104.468 64.4802Z" fill="#E4A216"/>
<path d="M172.59 78.3623C172.845 82.4814 172.659 82.4814 169.353 82.635C169.046 82.9388 169.046 84.0592 169.353 84.363C171.741 84.314 176.321 84.2617 177.847 84.2617C179.372 84.2617 181.705 84.314 183.39 84.363C183.697 84.0592 183.697 82.9388 183.39 82.635C179.931 82.4814 179.771 82.3214 179.483 78.1075L177.964 56.6918C177.745 53.9446 178 53.2848 181.46 53.0823C181.763 52.7752 181.763 51.658 181.46 51.351L171.235 51.4522L161.568 74.0373H161.314L152.209 51.4522L141.782 51.351C141.475 51.658 141.475 52.7752 141.782 53.0823C145.29 53.2848 145.597 53.3338 145.241 57.1492L143.196 78.1075C142.899 81.1585 142.288 82.3802 139.39 82.635C139.083 82.9388 139.083 84.0592 139.39 84.363C140.916 84.314 142.543 84.2617 143.765 84.2617C144.986 84.2617 148.038 84.314 149.563 84.363C149.87 84.0592 149.87 82.9388 149.563 82.635C146.205 82.3802 145.934 80.871 146.205 78.0062L147.538 58.9294H147.75L157.753 84.0069C157.897 84.363 158.465 84.6668 158.772 84.6668C159.076 84.6668 159.543 84.4642 159.736 84.0069L171.182 57.1002H171.284L172.59 78.3623V78.3623ZM198.617 81.7955C198.956 83.8534 200.332 84.7713 202.569 84.7713C205.375 84.7713 207.352 83.7031 209.234 81.9228C209.113 81.3283 208.904 80.92 208.316 80.4986C207.656 81.0049 207.146 81.2107 206.179 81.2107C205.062 81.2107 204.755 80.2928 204.755 77.8004L204.859 70.4768C204.859 63.1531 200.332 61.6766 196.15 61.6766C192.42 61.6766 186.696 63.7868 186.696 67.1449C186.696 68.6018 187.317 69.7222 189.336 69.7222C191.132 69.7222 192.498 68.6018 192.498 67.3735C192.498 66.7039 192.142 65.848 192.26 64.9661C192.335 64.4075 192.701 63.813 194.412 63.813C196.559 63.813 198.345 64.7276 198.345 71.1889L194.932 72.2571C189.581 73.9361 185.834 75.4126 185.834 79.4305C185.834 82.9388 187.768 84.7713 192.191 84.7713C193.667 84.7713 196.617 83.1413 198.296 81.8216L198.617 81.7955V81.7955ZM198.345 73.1717V79.8878C197.075 80.9037 195.804 81.7171 194.889 81.7171C192.701 81.7171 191.936 80.2438 191.936 78.6661C191.936 76.7845 192.099 75.2166 195.703 74.0373L198.345 73.1717ZM221.951 70.614C221.951 68.7978 222.51 68.0595 223.169 67.2723C223.588 66.7725 224.035 66.4066 224.78 66.4066C225.257 66.4066 225.789 66.8476 226.224 67.3735C226.58 67.808 227.442 68.213 228.589 68.213C230.062 68.213 231.513 66.6614 231.513 64.5251C231.513 63.2021 229.987 61.6766 228.155 61.6766C226.374 61.6766 224.444 63.2021 222.101 66.5602H221.899C221.797 65.0347 221.543 62.5423 221.543 62.5423C221.5 62.1013 221.085 61.6766 220.373 61.6766C217.956 62.2875 215.287 63.0257 211.929 63.3556C211.827 63.6594 211.929 64.6263 212.03 64.9334C214.803 65.1882 215.336 65.6455 215.336 68.543V78.0552C215.336 82.2789 214.777 82.3802 211.674 82.635C211.37 82.9388 211.37 84.0592 211.674 84.363C213.81 84.314 215.93 84.2617 218.642 84.2617C221.356 84.2617 223.424 84.314 225.613 84.363C225.917 84.0592 225.917 82.9388 225.613 82.635C222.51 82.4292 221.951 82.2789 221.951 78.0552V70.614V70.614ZM236.194 77.8004C236.194 82.0241 235.381 82.4814 232.277 82.635C231.97 82.9388 231.97 84.0592 232.277 84.363C234.414 84.314 236.684 84.2617 239.5 84.2617C241.721 84.2617 243.975 84.314 245.197 84.363C245.501 84.0592 245.501 82.9388 245.197 82.635C243.645 82.4553 242.806 82.0241 242.806 77.8004V73.629C244.23 73.629 245.782 73.8087 246.314 74.5959C247.487 76.3272 248.911 78.4374 249.774 80.2928C250.437 81.7171 250.587 82.1776 250.587 82.9388V84.2617L250.692 84.363C250.692 84.363 252.979 84.2617 254.759 84.2617C256.846 84.2617 259.695 84.314 261.577 84.363C261.88 84.0592 261.88 82.9388 261.577 82.635C259.6 82.4553 258.49 82.5762 256.948 80.2928L251.048 71.5972C250.8 71.2412 250.672 70.8165 250.894 70.578L253.413 67.808C255.056 65.9918 256.438 64.2441 260.306 63.813C260.61 63.5092 260.61 62.3887 260.306 62.0849C259.185 62.1339 255.981 62.1862 254.658 62.1862C252.776 62.1862 250.385 62.1339 248.503 62.0849C248.199 62.3887 248.199 63.5092 248.503 63.813C251.25 64.0188 252.038 64.4989 250.587 66.5079C249.47 68.053 248.35 69.2812 247.334 70.1632C246.68 70.7218 244.331 71.5972 242.806 71.5972V54.6078C242.806 51.302 242.959 49.4172 242.959 49.4172C242.959 48.9599 242.603 48.7573 242.146 48.7573C240.261 49.3682 236.194 49.9268 232.581 50.0803C232.427 50.6911 232.48 51.2497 232.735 51.707C235.939 51.9618 236.194 52.0304 236.194 55.5224V77.8004V77.8004ZM277.313 81.7955C277.649 83.8534 279.024 84.7713 281.262 84.7713C284.068 84.7713 286.045 83.7031 287.926 81.9228C287.809 81.3283 287.596 80.92 287.012 80.4986C286.348 81.0049 285.842 81.2107 284.875 81.2107C283.755 81.2107 283.451 80.2928 283.451 77.8004L283.552 70.4768C283.552 63.1531 279.024 61.6766 274.846 61.6766C271.116 61.6766 265.392 63.7868 265.392 67.1449C265.392 68.6018 266.01 69.7222 268.028 69.7222C269.825 69.7222 271.191 68.6018 271.191 67.3735C271.191 66.7039 270.835 65.848 270.952 64.9661C271.031 64.4075 271.393 63.813 273.105 63.813C275.251 63.813 277.041 64.7276 277.041 71.1889L273.624 72.2571C268.273 73.9361 264.526 75.4126 264.526 79.4305C264.526 82.9388 266.46 84.7713 270.884 84.7713C272.36 84.7713 275.31 83.1413 276.989 81.8216L277.313 81.7955V81.7955ZM277.041 73.1717V79.8878C275.767 80.9037 274.497 81.7171 273.582 81.7171C271.393 81.7171 270.632 80.2438 270.632 78.6661C270.632 76.7845 270.792 75.2166 274.395 74.0373L277.041 73.1717ZM292.147 61.5754C292.029 61.5754 291.843 61.7616 291.843 61.8792C291.791 64.169 291.487 66.4491 291.079 68.935C291.529 69.1211 292.673 69.2224 293.267 69.0852C294.283 65.3809 295.861 64.2703 297.387 64.2213L302.578 64.0776L302.663 64.169C299.21 69.8921 294.251 77.3594 290.367 82.5827C289.935 83.1772 289.909 83.3471 289.909 83.6019C289.909 83.9579 290.317 84.2094 291.079 84.2094L308.987 84.363C309.595 82.635 310.258 79.9988 310.614 77.464C310.284 77.2745 309.19 77.1569 308.579 77.1569L307.866 78.6236C306.57 81.3022 305.527 82.2266 302.881 82.2266H297.998L297.955 82.0731C301.696 77.2745 306.782 69.2485 309.849 64.2213C310.624 62.9408 310.767 62.5423 310.767 62.3397C310.767 62.1339 310.513 61.9837 310.156 61.9837C309.902 61.9837 306.442 62.0849 304.966 62.0849H295.149C293.512 62.0849 293.039 61.755 292.147 61.5754V61.5754ZM323.841 78.0552V67.9158C323.841 65.3907 324.043 62.5423 324.043 62.5423C324.043 61.9837 323.586 61.6766 322.874 61.6766C321.423 62.2352 317.327 62.6435 313.818 63.1009C313.717 63.4079 313.818 64.4238 313.92 64.7276C316.693 64.9824 317.226 65.3907 317.226 68.2914V78.0552C317.226 82.2789 316.667 82.3802 313.564 82.635C313.26 82.9388 313.26 84.0592 313.564 84.363C315.7 84.314 317.82 84.2617 320.532 84.2617C323.246 84.2617 325.314 84.314 327.503 84.363C327.807 84.0592 327.807 82.9388 327.503 82.635C324.399 82.4292 323.841 82.2789 323.841 78.0552V78.0552ZM316.971 53.9446C316.971 55.6237 318.193 57.3027 320.228 57.3027C322.518 57.3027 323.841 55.4701 323.841 54.1504C323.841 52.6217 322.668 50.7924 320.532 50.7924C318.14 50.7924 316.971 52.4192 316.971 53.9446V53.9446ZM340.727 92.8071C341.534 91.3828 342.305 89.5503 342.915 88.0248C346.986 78.2088 349.478 72.7144 352.173 67.0175C352.886 65.5443 354.411 63.9665 356.293 63.813C356.6 63.5092 356.6 62.3887 356.293 62.0849C355.022 62.1339 354.107 62.1862 352.683 62.1862C350.903 62.1862 349.171 62.1339 347.29 62.0849C346.986 62.3887 346.986 63.5092 347.29 63.813C348.916 63.9665 350.547 64.2213 349.73 66.0506L344.493 77.8004C344.474 77.8429 344.467 77.8788 344.457 77.9017C344.457 77.8625 344.431 77.7939 344.389 77.6992L339.658 67.0697C338.734 64.9824 338.234 64.0678 341.338 63.813C341.645 63.5092 341.645 62.3887 341.338 62.0849C339.456 62.1339 336.405 62.1862 334.572 62.1862C332.844 62.1862 329.943 62.1339 328.927 62.0849C328.62 62.3887 328.62 63.5092 328.927 63.813C331.165 64.0188 331.554 64.3911 332.945 67.5761L339.508 82.635C340.371 83.8534 341.338 84.7713 340.932 85.6859L339.727 88.4821C339.057 90.0501 338.44 90.9745 337.016 90.9745C336.098 90.9745 335.947 90.772 335.235 90.772C333.301 90.772 332.181 92.095 332.181 93.1109C332.181 93.7805 332.308 94.571 332.792 95.1459C333.265 95.7078 334.098 96.0638 334.775 96.0638C335.444 96.0638 336.973 95.8842 337.676 95.5543C338.744 95.0447 340.158 93.8164 340.727 92.8071V92.8071ZM369.65 77.8004C369.65 82.0241 369.549 82.635 369.343 84.5655C369.954 84.7713 370.513 84.9216 371.075 84.9216C371.735 84.363 372.244 83.6672 372.702 82.7362C374.685 84.2617 377.804 84.7713 380.13 84.7713C385.775 84.7713 391.727 79.1822 391.727 71.901C391.727 69.0101 390.616 66.1355 388.98 64.2703C387.147 62.1862 384.697 61.6766 382.012 61.6766C380.434 61.6766 377.739 63.4569 376.262 64.5251V54.6078C376.262 51.302 376.416 49.4172 376.416 49.4172C376.416 48.9599 376.06 48.7573 375.602 48.7573C373.721 49.3682 369.65 49.9268 366.037 50.0803C365.887 50.6911 365.936 51.2497 366.191 51.707C369.396 51.9618 369.65 52.0304 369.65 55.5224V77.8004ZM376.262 66.5602C377.941 65.4658 379.036 65.2895 380.231 65.2895C382.724 65.2895 384.606 67.5761 384.606 72.5641C384.606 76.7159 383.894 82.635 379.875 82.635C378.383 82.635 377.229 82.0241 376.262 80.8547V66.5602V66.5602ZM407.463 81.7955C407.803 83.8534 409.175 84.7713 411.413 84.7713C414.219 84.7713 416.195 83.7031 418.077 81.9228C417.959 81.3283 417.747 80.92 417.162 80.4986C416.499 81.0049 415.993 81.2107 415.026 81.2107C413.905 81.2107 413.601 80.2928 413.601 77.8004L413.703 70.4768C413.703 63.1531 409.175 61.6766 404.997 61.6766C401.266 61.6766 395.543 63.7868 395.543 67.1449C395.543 68.6018 396.16 69.7222 398.179 69.7222C399.976 69.7222 401.341 68.6018 401.341 67.3735C401.341 66.7039 400.985 65.848 401.103 64.9661C401.181 64.4075 401.544 63.813 403.259 63.813C405.402 63.813 407.192 64.7276 407.192 71.1889L403.775 72.2571C398.424 73.9361 394.677 75.4126 394.677 79.4305C394.677 82.9388 396.611 84.7713 401.037 84.7713C402.511 84.7713 405.461 83.1413 407.14 81.8216L407.463 81.7955V81.7955ZM407.192 73.1717V79.8878C405.918 80.9037 404.647 81.7171 403.732 81.7171C401.544 81.7171 400.783 80.2438 400.783 78.6661C400.783 76.7845 400.943 75.2166 404.546 74.0373L407.192 73.1717ZM430.285 78.0552V67.9158V67.8243C432.303 66.4328 434.371 65.4397 435.27 65.4397C437.305 65.4397 438.83 66.3576 438.83 69.2551V77.7514C438.83 82.0241 438.017 82.4814 435.933 82.635C435.626 82.9388 435.626 84.0592 435.933 84.363C438.069 84.314 439.722 84.2617 442.136 84.2617C444.952 84.2617 447.174 84.314 449.362 84.363C449.666 84.0592 449.666 82.9388 449.362 82.635C446.259 82.4814 445.446 82.0241 445.446 77.7514V69.8169C445.446 64.2213 443.054 61.6766 438.68 61.6766C436.629 61.6766 433.006 63.924 430.209 65.8382C430.092 64.0514 429.88 62.5423 429.88 62.5423C429.827 61.9216 429.419 61.6766 428.71 61.6766C426.825 62.1862 423.774 62.8983 420.265 63.3556C420.161 63.6594 420.265 64.6786 420.367 64.9824C423.137 65.2372 423.673 65.6455 423.673 68.543V78.0552C423.673 82.2789 423.114 82.3802 420.011 82.635C419.704 82.9388 419.704 84.0592 420.011 84.363C422.147 84.314 424.267 84.2617 426.979 84.2617C429.295 84.2617 430.742 84.314 432.931 84.363C433.234 84.0592 433.234 82.9388 432.931 82.635C430.794 82.4292 430.285 82.2789 430.285 78.0552V78.0552ZM455.618 77.8004C455.618 82.0241 454.805 82.4814 451.701 82.635C451.398 82.9388 451.398 84.0592 451.701 84.363C453.838 84.314 456.108 84.2617 458.924 84.2617C461.146 84.2617 463.4 84.314 464.621 84.363C464.928 84.0592 464.928 82.9388 464.621 82.635C463.07 82.4553 462.23 82.0241 462.23 77.8004V73.629C463.654 73.629 465.206 73.8087 465.742 74.5959C466.911 76.3272 468.336 78.4374 469.201 80.2928C469.861 81.7171 470.015 82.1776 470.015 82.9388V84.2617L470.116 84.363C470.116 84.363 472.406 84.2617 474.186 84.2617C476.271 84.2617 479.119 84.314 481.001 84.363C481.308 84.0592 481.308 82.9388 481.001 82.635C479.024 82.4553 477.914 82.5762 476.372 80.2928L470.472 71.5972C470.227 71.2412 470.1 70.8165 470.319 70.578L472.837 67.808C474.48 65.9918 475.862 64.2441 479.73 63.813C480.034 63.5092 480.034 62.3887 479.73 62.0849C478.61 62.1339 475.405 62.1862 474.082 62.1862C472.2 62.1862 469.809 62.1339 467.927 62.0849C467.624 62.3887 467.624 63.5092 467.927 63.813C470.675 64.0188 471.465 64.4989 470.015 66.5079C468.894 68.053 467.777 69.2812 466.758 70.1632C466.104 70.7218 463.756 71.5972 462.23 71.5972V54.6078C462.23 51.302 462.384 49.4172 462.384 49.4172C462.384 48.9599 462.028 48.7573 461.57 48.7573C459.689 49.3682 455.618 49.9268 452.005 50.0803C451.855 50.6911 451.904 51.2497 452.159 51.707C455.363 51.9618 455.618 52.0304 455.618 55.5224V77.8004ZM494.025 78.0552V67.9158C494.025 65.3907 494.228 62.5423 494.228 62.5423C494.228 61.9837 493.771 61.6766 493.058 61.6766C491.608 62.2352 487.511 62.6435 484.003 63.1009C483.902 63.4079 484.003 64.4238 484.104 64.7276C486.878 64.9824 487.41 65.3907 487.41 68.2914V78.0552C487.41 82.2789 486.852 82.3802 483.748 82.635C483.444 82.9388 483.444 84.0592 483.748 84.363C485.885 84.314 488.005 84.2617 490.716 84.2617C493.431 84.2617 495.499 84.314 497.687 84.363C497.991 84.0592 497.991 82.9388 497.687 82.635C494.584 82.4292 494.025 82.2789 494.025 78.0552V78.0552ZM487.155 53.9446C487.155 55.6237 488.377 57.3027 490.412 57.3027C492.702 57.3027 494.025 55.4701 494.025 54.1504C494.025 52.6217 492.853 50.7924 490.716 50.7924C488.325 50.7924 487.155 52.4192 487.155 53.9446V53.9446Z" fill="black"/>
<path d="M150.029 15.7324C153.374 15.7324 156.03 19.0153 156.03 25.3557C156.03 30.5496 154.217 33.9795 151.061 33.9795C147.624 33.9795 144.936 30.5757 144.936 24.7024C144.936 18.326 147.242 15.7324 150.029 15.7324V15.7324ZM160.747 24.7024C160.747 18.4828 156.121 14.4225 150.404 14.4225C147.265 14.4225 144.567 15.7552 142.754 17.921C141.127 19.8515 140.219 22.4419 140.219 25.3263C140.219 31.5132 145.122 35.2926 150.434 35.2926C153.655 35.2926 156.268 34.1363 158.058 32.1992C159.783 30.3405 160.747 27.7697 160.747 24.7024V24.7024ZM163.716 20.2631C164.84 20.2631 165.183 19.7013 165.183 19.2015C165.183 18.7017 165.026 17.921 163.746 17.921C163.527 17.921 163.403 17.6695 163.403 17.3591C163.403 16.6405 163.965 15.4841 165.278 15.2032L165.154 14.6707C162.309 14.8275 161.841 17.1697 161.841 17.9831C161.841 19.1068 162.527 20.2631 163.716 20.2631V20.2631ZM168.091 21.0438C168.019 21.0438 167.901 21.1582 167.901 21.2333C167.872 22.6379 167.682 24.0393 167.434 25.5648C167.708 25.6791 168.414 25.7412 168.777 25.6595C169.404 23.3827 170.371 22.7 171.308 22.6706L174.497 22.5824L174.549 22.6379C172.429 26.1528 169.381 30.7423 166.996 33.9501C166.732 34.3127 166.715 34.4172 166.715 34.574C166.715 34.7928 166.964 34.9496 167.434 34.9496L178.433 35.0444C178.809 33.9795 179.214 32.3625 179.433 30.8044C179.23 30.69 178.557 30.6182 178.185 30.6182L177.747 31.5165C176.95 33.1628 176.31 33.7312 174.683 33.7312H171.684L171.658 33.6365C173.954 30.69 177.081 25.7575 178.966 22.6706C179.439 21.8833 179.528 21.6383 179.528 21.5142C179.528 21.3901 179.371 21.2954 179.152 21.2954C178.995 21.2954 176.872 21.3574 175.964 21.3574H169.933C168.927 21.3574 168.636 21.1549 168.091 21.0438V21.0438ZM183.245 31.0134C183.245 33.6071 183.183 33.9795 183.059 35.1685C183.435 35.2926 183.778 35.3874 184.121 35.3874C184.526 35.0444 184.839 34.6165 185.12 34.0448C186.339 34.9823 188.256 35.2926 189.684 35.2926C193.15 35.2926 196.805 31.8627 196.805 27.3875C196.805 25.6138 196.126 23.8466 195.12 22.7C193.996 21.4195 192.49 21.1059 190.84 21.1059C189.87 21.1059 188.214 22.2002 187.309 22.8568V16.7646C187.309 14.7328 187.4 13.5764 187.4 13.5764C187.4 13.2955 187.182 13.1714 186.901 13.1714C185.744 13.547 183.245 13.89 181.027 13.9848C180.932 14.3572 180.965 14.7034 181.122 14.9843C183.088 15.1411 183.245 15.1803 183.245 17.3265V31.0134V31.0134ZM187.309 24.1079C188.338 23.435 189.011 23.3272 189.746 23.3272C191.278 23.3272 192.431 24.7318 192.431 27.7958C192.431 30.347 191.993 33.9795 189.527 33.9795C188.609 33.9795 187.9 33.6071 187.309 32.8884V24.1079V24.1079ZM203.711 26.388C203.744 25.2936 203.911 24.1177 204.339 23.484C204.832 22.7392 205.671 22.4191 206.024 22.4191C206.87 22.4191 208.023 23.2324 208.023 25.7314C208.023 25.9208 208.023 26.3259 207.961 26.388H203.711V26.388ZM211.649 30.9514C210.369 32.2613 208.68 32.6075 207.494 32.6075C205.057 32.6075 203.558 31.1996 203.558 28.1388C203.558 27.92 203.587 27.7958 203.587 27.639H211.088C211.836 27.639 211.992 27.1066 211.992 26.6689C211.992 24.0132 210.963 21.1059 206.367 21.1059C203.087 21.1059 199.337 24.0131 199.337 28.7954C199.337 30.6214 200 32.5226 201.336 33.7312C202.509 34.7928 204.051 35.2926 206.276 35.2926C208.432 35.2926 210.555 34.1983 212.12 31.9183C212.12 31.5132 211.963 30.9514 211.649 30.9514V30.9514ZM215.962 31.0134C215.962 33.6071 215.462 33.888 213.554 33.9795C213.368 34.1689 213.368 34.8549 213.554 35.0444C214.867 35.0117 216.262 34.9823 217.994 34.9823C219.356 34.9823 220.741 35.0117 221.492 35.0444C221.678 34.8549 221.678 34.1689 221.492 33.9795C220.538 33.8717 220.022 33.6071 220.022 31.0134V28.4492C220.898 28.4492 221.852 28.5602 222.178 29.0437C222.897 30.1053 223.772 31.4021 224.305 32.5454C224.71 33.4176 224.805 33.6985 224.805 34.1689V34.9823L224.867 35.0444C224.867 35.0444 226.271 34.9823 227.366 34.9823C228.65 34.9823 230.397 35.0117 231.554 35.0444C231.74 34.8549 231.74 34.1689 231.554 33.9795C230.342 33.8717 229.659 33.9435 228.712 32.5454L225.086 27.2013C224.935 26.9825 224.857 26.7211 224.991 26.5741L226.539 24.8723C227.549 23.7584 228.398 22.6869 230.773 22.4191C230.959 22.2329 230.959 21.5436 230.773 21.3574C230.084 21.3901 228.117 21.4195 227.304 21.4195C226.147 21.4195 224.681 21.3901 223.524 21.3574C223.335 21.5436 223.335 22.2329 223.524 22.4191C225.21 22.5465 225.693 22.8404 224.805 24.0752C224.115 25.0225 223.429 25.7771 222.805 26.3194C222.404 26.6656 220.96 27.2013 220.022 27.2013V16.7646C220.022 14.7328 220.117 13.5764 220.117 13.5764C220.117 13.2955 219.898 13.1714 219.617 13.1714C218.461 13.547 215.962 13.89 213.743 13.9848C213.649 14.3572 213.681 14.7034 213.838 14.9843C215.805 15.1411 215.962 15.1803 215.962 17.3265V31.0134V31.0134ZM239.554 31.1702V24.9409C239.554 23.3892 239.678 21.6384 239.678 21.6384C239.678 21.2954 239.397 21.1059 238.96 21.1059C238.071 21.4522 235.556 21.7004 233.399 21.9813C233.334 22.1708 233.399 22.7947 233.462 22.9809C235.164 23.1377 235.49 23.3892 235.49 25.1695V31.1702C235.49 33.7606 235.147 33.8259 233.243 33.9795C233.053 34.1689 233.053 34.8549 233.243 35.0444C234.553 35.0117 235.856 34.9823 237.522 34.9823C239.188 34.9823 240.459 35.0117 241.805 35.0444C241.991 34.8549 241.991 34.1689 241.805 33.9795C239.897 33.8553 239.554 33.7606 239.554 31.1702V31.1702ZM235.337 16.3596C235.337 17.3885 236.085 18.4208 237.336 18.4208C238.741 18.4208 239.554 17.2938 239.554 16.4837C239.554 15.5462 238.835 14.4225 237.522 14.4225C236.055 14.4225 235.337 15.4221 235.337 16.3596V16.3596ZM243.866 30.4189C243.99 31.9673 244.131 33.434 244.395 34.6067C244.974 34.8092 246.986 35.2926 248.74 35.2926C251.148 35.2926 254.147 33.986 254.147 31.2617C254.147 30.2066 253.882 29.3507 253.186 28.5766C252.288 27.5639 250.991 26.793 249.554 26.1691C248.302 25.6236 247.865 24.6371 247.865 23.7322C247.865 23.0136 248.459 22.4191 249.364 22.4191C250.458 22.4191 251.52 23.4186 252.301 25.3263C252.866 25.421 253.209 25.3884 253.523 25.1695C253.523 24.0458 253.395 22.8568 253.114 21.8572C252.115 21.4195 251.334 21.1059 249.616 21.1059C247.963 21.1059 246.385 21.7265 245.398 22.7327C244.68 23.4611 244.333 24.3267 244.333 25.1695C244.333 26.0972 244.693 26.8453 245.304 27.5117C246.27 28.5766 247.976 29.6807 248.926 30.1053C250.178 30.6704 250.521 31.7941 250.521 32.5454C250.521 33.5483 249.521 34.0742 248.678 34.0742C247.267 34.0742 245.771 32.6532 245.114 30.3568C244.614 30.2621 244.366 30.2948 243.866 30.4189V30.4189ZM257.678 21.4522C257.24 21.4554 256.767 21.5763 256.365 21.9193V22.8274C256.365 22.9809 256.397 23.0136 256.522 23.0136H258.553C258.485 26.1495 258.459 30.1478 258.459 31.7059C258.459 32.8002 258.73 33.8455 259.396 34.4172C260.099 35.0215 261.249 35.2926 261.99 35.2926C263.715 35.2926 265.613 34.4172 266.24 33.545C266.24 33.1694 266.051 32.9799 265.675 32.6728C265.27 32.9799 264.489 33.1073 263.895 33.1073C263.209 33.1073 262.519 32.5814 262.519 31.0167C262.519 29.4618 262.49 26.1266 262.49 23.0136H265.646C265.959 23.0136 266.397 22.8894 266.397 22.6085V21.6384C266.397 21.5142 266.302 21.4522 266.145 21.4522H262.49L262.519 20.3905C262.585 18.3097 262.676 16.8593 262.676 16.8593C262.676 16.6601 262.585 16.5882 262.431 16.5882C262.209 16.5882 261.043 16.9312 260.553 17.1403C260.02 17.3591 259.109 17.5388 258.896 17.8263C258.678 18.1235 258.553 18.9663 258.553 21.4522H257.678ZM275.018 22.4191C277.145 22.4191 278.582 24.9507 278.582 29.2331C278.582 32.9864 277.112 33.9795 275.988 33.9795C273.427 33.9795 272.427 30.138 272.427 27.8252C272.427 24.9507 272.927 22.4191 275.018 22.4191V22.4191ZM268.05 28.5112C268.05 32.5944 271.284 35.2926 275.488 35.2926C277.69 35.2926 279.552 34.6622 280.833 33.5124C282.411 32.0947 282.956 29.9714 282.956 28.2303C282.956 24.1438 280.16 21.1059 275.521 21.1059C272.927 21.1059 270.993 21.9977 269.758 23.4186C268.576 24.7775 268.05 26.6656 268.05 28.5112V28.5112ZM291.237 31.1702V24.9409V24.8821C292.475 24.0295 293.746 23.4186 294.298 23.4186C295.549 23.4186 296.487 23.9838 296.487 25.764V30.9808C296.487 33.6071 295.987 33.888 294.707 33.9795C294.517 34.1689 294.517 34.8549 294.707 35.0444C296.017 35.0117 297.032 34.9823 298.519 34.9823C300.247 34.9823 301.612 35.0117 302.955 35.0444C303.141 34.8549 303.141 34.1689 302.955 33.9795C301.047 33.888 300.548 33.6071 300.548 30.9808V26.107C300.548 22.6706 299.081 21.1059 296.392 21.1059C295.131 21.1059 292.91 22.4877 291.192 23.6636C291.116 22.5661 290.986 21.6384 290.986 21.6384C290.956 21.2594 290.705 21.1059 290.267 21.1059C289.114 21.4195 287.239 21.8572 285.083 22.1381C285.017 22.3276 285.083 22.9515 285.145 23.1377C286.847 23.2945 287.173 23.546 287.173 25.3263V31.1702C287.173 33.7606 286.83 33.8259 284.926 33.9795C284.736 34.1689 284.736 34.8549 284.926 35.0444C286.236 35.0117 287.539 34.9823 289.205 34.9823C290.626 34.9823 291.518 35.0117 292.861 35.0444C293.05 34.8549 293.05 34.1689 292.861 33.9795C291.551 33.8553 291.237 33.7606 291.237 31.1702V31.1702ZM327.874 20.3905C327.874 24.2222 325.561 24.8265 322.935 24.8265H321.592V18.607C321.592 16.4837 322.311 15.8271 323.967 15.8271C325.78 15.8271 327.874 16.5784 327.874 20.3905V20.3905ZM324.966 14.5466C323.719 14.5466 315.875 14.7655 314.624 14.7655C314.314 14.9517 314.314 15.6409 314.624 15.8271C316.342 15.9218 317.218 16.046 317.218 18.6396V31.1702C317.218 33.7606 316.342 33.888 314.624 33.9795C314.314 34.1689 314.314 34.8549 314.624 35.0444C315.875 35.0117 318.188 34.9823 319.436 34.9823C320.687 34.9823 322.935 35.0117 324.186 35.0444C324.499 34.8549 324.499 34.1689 324.186 33.9795C322.467 33.888 321.592 33.7606 321.592 31.1702V26.1397C324.071 26.143 324.343 26.3618 324.78 27.0772L328.436 32.5128C329.406 33.9174 330.687 35.2926 332.562 35.2926C333.816 35.2926 335.436 35.2012 335.747 35.0444C335.858 34.8255 335.841 34.231 335.717 33.9795C334.309 33.9795 333.591 33.2314 332.715 31.9183L328.468 25.3557C330.154 24.6697 332.591 23.0462 332.591 19.8581C332.591 18.6037 332.124 16.7222 330.187 15.5756C329.03 14.8961 327.312 14.5466 324.966 14.5466V14.5466ZM340.934 26.388C340.967 25.2936 341.134 24.1177 341.558 23.484C342.055 22.7392 342.894 22.4191 343.247 22.4191C344.09 22.4191 345.246 23.2324 345.246 25.7314C345.246 25.9208 345.246 26.3259 345.184 26.388H340.934ZM348.873 30.9514C347.592 32.2613 345.903 32.6075 344.717 32.6075C342.277 32.6075 340.778 31.1996 340.778 28.1388C340.778 27.92 340.81 27.7958 340.81 27.639H348.311C349.059 27.639 349.216 27.1066 349.216 26.6689C349.216 24.0132 348.183 21.1059 343.59 21.1059C340.31 21.1059 336.56 24.0131 336.56 28.7954C336.56 30.6214 337.22 32.5226 338.559 33.7312C339.732 34.7928 341.274 35.2926 343.495 35.2926C345.655 35.2926 347.778 34.1983 349.34 31.9183C349.34 31.5132 349.183 30.9514 348.873 30.9514V30.9514ZM352.185 30.4189C352.309 31.9673 352.45 33.434 352.714 34.6067C353.292 34.8092 355.305 35.2926 357.059 35.2926C359.463 35.2926 362.465 33.986 362.465 31.2617C362.465 30.2066 362.198 29.3507 361.505 28.5766C360.607 27.5639 359.31 26.793 357.872 26.1691C356.621 25.6236 356.184 24.6371 356.184 23.7322C356.184 23.0136 356.778 22.4191 357.683 22.4191C358.777 22.4191 359.839 23.4186 360.62 25.3263C361.182 25.421 361.528 25.3884 361.838 25.1695C361.838 24.0458 361.714 22.8568 361.433 21.8572C360.434 21.4195 359.653 21.1059 357.934 21.1059C356.282 21.1059 354.704 21.7265 353.714 22.7327C352.995 23.4611 352.652 24.3267 352.652 25.1695C352.652 26.0972 353.012 26.8453 353.622 27.5117C354.589 28.5766 356.295 29.6807 357.245 30.1053C358.496 30.6704 358.839 31.7941 358.839 32.5454C358.839 33.5483 357.84 34.0742 356.997 34.0742C355.586 34.0742 354.09 32.6532 353.433 30.3568C352.933 30.2621 352.685 30.2948 352.185 30.4189V30.4189ZM366.683 25.3263V38.4187C366.683 41.0124 366.34 41.0745 364.432 41.2313C364.246 41.4175 364.246 42.1067 364.432 42.2929C365.745 42.2602 367.049 42.2308 368.715 42.2308C370.381 42.2308 371.652 42.2602 372.994 42.2929C373.184 42.1067 373.184 41.4175 372.994 41.2313C371.09 41.1039 370.743 41.0124 370.743 38.4187V34.7634C371.416 35.1064 372.089 35.2926 372.837 35.2926C377.604 35.2926 380.681 32.1829 380.681 27.577C380.681 25.8359 380.021 23.889 378.806 22.6706C377.715 21.5698 376.147 21.1059 374.526 21.1059C373.618 21.1059 371.933 22.2002 370.838 23.1998H370.662C370.59 22.3145 370.495 21.6384 370.495 21.6384C370.462 21.2594 370.214 21.1059 369.776 21.1059C368.62 21.4195 366.745 21.8572 364.589 22.1381C364.527 22.3276 364.589 22.9515 364.651 23.1377C366.356 23.2945 366.683 23.546 366.683 25.3263V25.3263ZM370.743 32.9505V24.9409C370.743 24.7743 370.74 24.6011 370.734 24.4313C371.635 23.6179 372.792 23.1998 373.527 23.1998C374.807 23.1998 376.307 24.7645 376.307 28.4198C376.307 31.0428 375.369 33.9795 372.651 33.9795C372.308 33.9795 371.527 33.7933 370.743 32.9505V32.9505ZM397.181 30.824V25.421C397.181 22.7947 397.243 23.1704 397.243 22.4191C397.243 21.8899 397.119 21.5436 396.93 21.3574C396.368 21.3901 395.744 21.4195 395.149 21.4195C394.284 21.4195 392.245 21.3901 391.023 21.3574C390.837 21.5436 390.837 22.2329 391.023 22.4191C392.618 22.5759 393.117 22.7947 393.117 25.421V31.2094C393.117 31.5132 393.13 31.8235 393.144 32.1371C391.873 32.9244 390.821 32.9799 390.275 32.9799C389.024 32.9799 388.087 32.8394 388.087 30.6378V25.421C388.087 22.7947 388.149 23.1704 388.149 22.4191C388.149 21.8899 388.025 21.5436 387.838 21.3574C387.276 21.3901 386.63 21.4195 386.058 21.4195C384.447 21.4195 383.275 21.3901 381.932 21.3574C381.746 21.5436 381.746 22.2329 381.932 22.4191C383.369 22.4811 384.026 22.7947 384.026 25.421V30.2948C384.026 33.6201 385.339 35.2926 388.025 35.2926C389.161 35.2926 391.432 34.3911 393.228 33.3882C393.3 34.1722 393.369 34.7634 393.369 34.7634C393.395 35.1358 393.65 35.2926 394.088 35.2926C395.244 34.9823 397.119 34.5446 399.275 34.2637C399.337 34.0742 399.275 33.4503 399.213 33.2608C397.508 33.1073 397.181 32.6075 397.181 30.824ZM402.241 31.0134C402.241 33.6071 402.179 33.9795 402.055 35.1685C402.431 35.2926 402.774 35.3874 403.117 35.3874C403.525 35.0444 403.836 34.6165 404.117 34.0448C405.335 34.9823 407.253 35.2926 408.68 35.2926C412.149 35.2926 415.805 31.8627 415.805 27.3875C415.805 25.6138 415.122 23.8466 414.116 22.7C412.992 21.4195 411.486 21.1059 409.837 21.1059C408.866 21.1059 407.21 22.2002 406.305 22.8568V16.7646C406.305 14.7328 406.4 13.5764 406.4 13.5764C406.4 13.2955 406.181 13.1714 405.9 13.1714C404.744 13.547 402.241 13.89 400.023 13.9848C399.932 14.3572 399.961 14.7034 400.118 14.9843C402.088 15.1411 402.241 15.1803 402.241 17.3265V31.0134V31.0134ZM406.305 24.1079C407.338 23.435 408.007 23.3272 408.742 23.3272C410.274 23.3272 411.431 24.7318 411.431 27.7958C411.431 30.347 410.993 33.9795 408.523 33.9795C407.609 33.9795 406.9 33.6071 406.305 32.8884V24.1079V24.1079ZM419.993 31.0134C419.993 33.6071 419.493 33.888 417.585 33.9795C417.399 34.1689 417.399 34.8549 417.585 35.0444C418.899 35.0117 420.293 34.9823 422.022 34.9823C423.753 34.9823 425.115 35.0117 426.461 35.0444C426.647 34.8549 426.647 34.1689 426.461 33.9795C424.553 33.888 424.054 33.6071 424.054 31.0134V16.7646C424.054 14.7328 424.148 13.5764 424.148 13.5764C424.148 13.2955 423.929 13.1714 423.648 13.1714C422.492 13.547 419.993 13.89 417.772 13.9848C417.68 14.3572 417.709 14.7034 417.866 14.9843C419.836 15.1411 419.993 15.1803 419.993 17.3265V31.0134ZM434.585 31.1702V24.9409C434.585 23.3892 434.71 21.6384 434.71 21.6384C434.71 21.2954 434.429 21.1059 433.991 21.1059C433.099 21.4522 430.584 21.7004 428.428 21.9813C428.366 22.1708 428.428 22.7947 428.49 22.9809C430.195 23.1377 430.522 23.3892 430.522 25.1695V31.1702C430.522 33.7606 430.179 33.8259 428.274 33.9795C428.085 34.1689 428.085 34.8549 428.274 35.0444C429.584 35.0117 430.888 34.9823 432.554 34.9823C434.22 34.9823 435.49 35.0117 436.833 35.0444C437.022 34.8549 437.022 34.1689 436.833 33.9795C434.929 33.8553 434.585 33.7606 434.585 31.1702V31.1702ZM430.365 16.3596C430.365 17.3885 431.116 18.4208 432.367 18.4208C433.772 18.4208 434.585 17.2938 434.585 16.4837C434.585 15.5462 433.867 14.4225 432.554 14.4225C431.084 14.4225 430.365 15.4221 430.365 16.3596V16.3596ZM440.835 31.0134C440.835 33.6071 440.335 33.888 438.427 33.9795C438.241 34.1689 438.241 34.8549 438.427 35.0444C439.74 35.0117 441.135 34.9823 442.863 34.9823C444.229 34.9823 445.614 35.0117 446.365 35.0444C446.552 34.8549 446.552 34.1689 446.365 33.9795C445.411 33.8717 444.895 33.6071 444.895 31.0134V28.4492C445.771 28.4492 446.725 28.5602 447.051 29.0437C447.77 30.1053 448.646 31.4021 449.178 32.5454C449.583 33.4176 449.678 33.6985 449.678 34.1689V34.9823L449.74 35.0444C449.74 35.0444 451.145 34.9823 452.239 34.9823C453.52 34.9823 455.271 35.0117 456.427 35.0444C456.613 34.8549 456.613 34.1689 456.427 33.9795C455.212 33.8717 454.529 33.9435 453.582 32.5454L449.959 27.2013C449.809 26.9825 449.73 26.7211 449.864 26.5741L451.413 24.8723C452.422 23.7584 453.271 22.6869 455.646 22.4191C455.832 22.2329 455.832 21.5436 455.646 21.3574C454.957 21.3901 452.99 21.4195 452.177 21.4195C451.021 21.4195 449.55 21.3901 448.397 21.3574C448.208 21.5436 448.208 22.2329 448.397 22.4191C450.083 22.5465 450.566 22.8404 449.678 24.0752C448.989 25.0225 448.303 25.7771 447.675 26.3194C447.277 26.6656 445.833 27.2013 444.895 27.2013V16.7646C444.895 14.7328 444.99 13.5764 444.99 13.5764C444.99 13.2955 444.771 13.1714 444.49 13.1714C443.334 13.547 440.835 13.89 438.617 13.9848C438.522 14.3572 438.551 14.7034 438.708 14.9843C440.678 15.1411 440.835 15.1803 440.835 17.3265V31.0134V31.0134ZM466.093 33.4666C466.299 34.7308 467.145 35.2926 468.517 35.2926C470.242 35.2926 471.457 34.6361 472.614 33.545C472.539 33.1792 472.408 32.9276 472.049 32.6696C471.643 32.9799 471.33 33.1073 470.739 33.1073C470.049 33.1073 469.863 32.5454 469.863 31.0134L469.925 26.5121C469.925 22.014 467.145 21.1059 464.577 21.1059C462.284 21.1059 458.769 22.406 458.769 24.4672C458.769 25.3622 459.148 26.0482 460.39 26.0482C461.494 26.0482 462.333 25.3622 462.333 24.6077C462.333 24.1961 462.114 23.6702 462.186 23.1279C462.232 22.7849 462.457 22.4191 463.509 22.4191C464.826 22.4191 465.927 22.9809 465.927 26.9498L463.826 27.6064C460.54 28.6386 458.24 29.5435 458.24 32.013C458.24 34.1689 459.426 35.2926 462.144 35.2926C463.052 35.2926 464.862 34.2931 465.894 33.4797L466.093 33.4666V33.4666ZM465.927 28.1682V32.2939C465.146 32.9178 464.362 33.4176 463.8 33.4176C462.457 33.4176 461.987 32.5128 461.987 31.5426C461.987 30.3895 462.088 29.4259 464.3 28.7007L465.927 28.1682ZM474.175 30.4189C474.299 31.9673 474.44 33.434 474.708 34.6067C475.283 34.8092 477.295 35.2926 479.049 35.2926C481.457 35.2926 484.456 33.986 484.456 31.2617C484.456 30.2066 484.191 29.3507 483.499 28.5766C482.597 27.5639 481.3 26.793 479.863 26.1691C478.611 25.6236 478.174 24.6371 478.174 23.7322C478.174 23.0136 478.768 22.4191 479.673 22.4191C480.768 22.4191 481.829 23.4186 482.613 25.3263C483.175 25.421 483.518 25.3884 483.832 25.1695C483.832 24.0458 483.704 22.8568 483.423 21.8572C482.424 21.4195 481.643 21.1059 479.925 21.1059C478.275 21.1059 476.697 21.7265 475.707 22.7327C474.989 23.4611 474.642 24.3267 474.642 25.1695C474.642 26.0972 475.002 26.8453 475.613 27.5117C476.58 28.5766 478.285 29.6807 479.239 30.1053C480.487 30.6704 480.83 31.7941 480.83 32.5454C480.83 33.5483 479.83 34.0742 478.987 34.0742C477.576 34.0742 476.08 32.6532 475.423 30.3568C474.923 30.2621 474.675 30.2948 474.175 30.4189V30.4189ZM493.266 31.1702V24.9409C493.266 23.3892 493.394 21.6384 493.394 21.6384C493.394 21.2954 493.113 21.1059 492.675 21.1059C491.783 21.4522 489.268 21.7004 487.112 21.9813C487.05 22.1708 487.112 22.7947 487.174 22.9809C488.876 23.1377 489.206 23.3892 489.206 25.1695V31.1702C489.206 33.7606 488.862 33.8259 486.955 33.9795C486.768 34.1689 486.768 34.8549 486.955 35.0444C488.268 35.0117 489.568 34.9823 491.237 34.9823C492.903 34.9823 494.174 35.0117 495.517 35.0444C495.703 34.8549 495.703 34.1689 495.517 33.9795C493.612 33.8553 493.266 33.7606 493.266 31.1702V31.1702ZM489.049 16.3596C489.049 17.3885 489.8 18.4208 491.048 18.4208C492.456 18.4208 493.266 17.2938 493.266 16.4837C493.266 15.5462 492.547 14.4225 491.237 14.4225C489.767 14.4225 489.049 15.4221 489.049 16.3596V16.3596Z" fill="black" fill-opacity="0.87"/>
<defs>
<radialGradient id="paint0_radial" cx="0" cy="0" r="1" gradientUnits="userSpaceOnUse" gradientTransform="translate(81.9426 31.1256) rotate(144.287) scale(86.545 88.9384)">
<stop stop-color="#E4A237"/>
<stop offset="0.501961" stop-color="#F0B644"/>
<stop offset="1" stop-color="#E7C66E"/>
</radialGradient>
</defs>
</svg>
